<?xml version="1.0" encoding="utf-8"?>
<!-- Generator: Adobe Illustrator 18.1.0, SVG Export Plug-In . SVG Version: 6.00 Build 0)  -->
<svg version="1.1" id="Layer_1" xmlns="http://www.w3.org/2000/svg" xmlns:xlink="http://www.w3.org/1999/xlink" x="0px" y="0px"
	 viewBox="0 0 124 60" enable-background="new 0 0 124 60" xml:space="preserve">
<polygon fill="#298562" points="41.3,0 123.9,0 82.6,60 0,60 "/>
<g>
	<rect x="35.6" y="6.4" fill="none" width="52.7" height="47.3"/>
	<path fill="#FFFFFF" d="M46.5,6.9c2.7,0,4.9,2.2,4.9,4.9s-2.2,4.9-4.9,4.9s-4.9-2.2-4.9-4.9S43.8,6.9,46.5,6.9z M50.7,22.8v25.9
		h-8.4V22.8H50.7z"/>
	<path fill="#FFFFFF" d="M55.7,22.8h8.4v3.1c2.6-3.3,5.6-3.8,8-3.8c2.3,0,5.2,0.4,7.4,2.6c2.4,2.4,2.6,5.5,2.6,7.6v16.4h-8.4V35.4
		c0-1.7-0.1-3.8-1.4-5.2c-0.6-0.6-1.7-1.2-3.2-1.2c-1.7,0-2.8,0.7-3.5,1.4c-1.4,1.4-1.6,3.3-1.6,4.9v13.3h-8.4V22.8z"/>
</g>
<g>
</g>
<g>
</g>
<g>
</g>
<g>
</g>
<g>
</g>
<g>
</g>
</svg>
