<?xml version="1.0" encoding="utf-8"?>
<!-- Generator: Adobe Illustrator 18.1.0, SVG Export Plug-In . SVG Version: 6.00 Build 0)  -->
<svg version="1.1" id="Layer_1" xmlns="http://www.w3.org/2000/svg" xmlns:xlink="http://www.w3.org/1999/xlink" x="0px" y="0px"
	 viewBox="0 0 124 60" enable-background="new 0 0 124 60" xml:space="preserve">
<polygon fill="#349C8C" points="41.3,0 124,0 82.7,60 0,60 "/>
<g>
	<rect x="35.6" y="8.5" fill="none" width="52.7" height="43"/>
	<path fill="#FFFFFF" d="M64.8,31.7v19.2h-8.4V31.7h-3V25h3v-5.1c0-2.9,0.3-6.2,2.9-9c1.7-1.8,4.1-3,7.3-3c1.9,0,3.4,0.3,4.8,0.9
		v7.3c-0.9-0.6-2.2-1-3.2-1c-1.3,0-2.1,0.6-2.4,1c-0.9,1.2-0.9,3.3-0.9,4.5V25h6.6v6.7H64.8z"/>
</g>
<g>
</g>
<g>
</g>
<g>
</g>
<g>
</g>
<g>
</g>
<g>
</g>
</svg>
