<?xml version="1.0" encoding="utf-8"?>
<!-- Generator: Adobe Illustrator 18.1.0, SVG Export Plug-In . SVG Version: 6.00 Build 0)  -->
<svg version="1.1" id="Layer_1" xmlns="http://www.w3.org/2000/svg" xmlns:xlink="http://www.w3.org/1999/xlink" x="0px" y="0px"
	 viewBox="0 0 124 60" enable-background="new 0 0 124 60" xml:space="preserve">
<polygon fill="#349C8C" points="41.4,0 124,0 82.7,60 0.1,60 "/>
<g>
	<path fill="#FFFFFF" d="M43.7,43.3c4.1,0.3,7.7-0.7,11-3.2c-3.8-0.7-6.4-2.6-7-5.3c1.1,0.1,2.1,0.2,3.3-0.1
		c-2.1-0.5-3.7-1.6-4.8-3.4c-0.8-1.3-1.2-2.8-1.2-4.2c1,0.5,2.1,0.9,3.3,0.9c-1.6-1.2-2.7-2.7-3.1-4.7c-0.4-1.9-0.1-3.7,0.8-5.4
		c4.1,4.8,9.3,7.5,15.6,7.9c0-0.3-0.1-0.5-0.1-0.8c-0.4-3.2,1.3-6.3,4.1-7.8c2.9-1.4,6.4-0.9,8.7,1.3c0.2,0.2,0.4,0.2,0.7,0.2
		c1.5-0.4,3-0.9,4.4-1.8c-0.6,1.8-1.6,3.1-3,4.1c1.4-0.1,2.7-0.5,3.9-1c0,0,0.1,0.1,0.1,0.1c-0.6,0.7-1.1,1.4-1.7,2
		c-0.5,0.6-1.2,1-1.7,1.6c-0.1,0.1-0.3,0.4-0.3,0.5c0.1,6-1.9,11.2-6,15.6c-4.1,4.5-9.3,6.5-15.4,6.6c-4,0.1-7.8-1-11.2-3
		C44,43.5,43.9,43.4,43.7,43.3z"/>
</g>
<g>
</g>
<g>
</g>
<g>
</g>
<g>
</g>
<g>
</g>
<g>
</g>
</svg>
