<?xml version="1.0" encoding="utf-8"?>
<!-- Generator: Adobe Illustrator 18.1.0, SVG Export Plug-In . SVG Version: 6.00 Build 0)  -->
<svg version="1.1" id="Layer_1" xmlns="http://www.w3.org/2000/svg" xmlns:xlink="http://www.w3.org/1999/xlink" x="0px" y="0px"
	 viewBox="0 0 60 60" enable-background="new 0 0 60 60" xml:space="preserve">
<rect x="8.8" y="8.8" transform="matrix(-0.7071 0.7071 -0.7071 -0.7071 72.4257 30.0393)" fill="#349C8C" width="42.4" height="42.4"/>
<g>
	<rect x="12.2" y="20.7" fill="none" width="35" height="26.3"/>
	<g enable-background="new    ">
		<path fill="#FFFFFF" d="M24.3,22.2v16h-3.7v-16H24.3z"/>
		<path fill="#FFFFFF" d="M39.2,38.3h-3.5V37c-0.5,0.8-1.5,1.7-3.4,1.7c-1.6,0-2.7-0.5-3.7-1.5c-1.1-1.1-1.7-2.6-1.7-4.3
			c0-1.8,0.6-3.2,1.7-4.2c0.9-0.9,2.3-1.4,3.7-1.4c1.2,0,2.5,0.4,3.3,1.6v-8h3.5V38.3z M31.4,30.9c-0.5,0.5-0.8,1.2-0.8,2
			c0,0.8,0.3,1.5,0.8,2c0.5,0.5,1.2,0.7,1.8,0.7c0.6,0,1.4-0.3,2-0.8c0.4-0.4,0.8-1,0.8-1.9c0-0.9-0.4-1.5-0.8-2
			c-0.6-0.6-1.2-0.8-1.9-0.8C32.5,30.2,31.9,30.4,31.4,30.9z"/>
	</g>
</g>
</svg>
