<?xml version="1.0" encoding="utf-8"?>
<!-- Generator: Adobe Illustrator 18.1.0, SVG Export Plug-In . SVG Version: 6.00 Build 0)  -->
<svg version="1.1" id="Layer_1" xmlns="http://www.w3.org/2000/svg" xmlns:xlink="http://www.w3.org/1999/xlink" x="0px" y="0px"
	 viewBox="0 0 60 60" enable-background="new 0 0 60 60" xml:space="preserve">
<rect x="9.2" y="9" transform="matrix(0.7071 -0.7071 0.7071 0.7071 -12.349 30.1869)" fill="#349C8C" width="42.1" height="42.1"/>
<g>
	<g>
		<path fill="#FFFFFF" d="M30.4,22.5l2.8,2.8l2.7,2.7l-1.2,1.2c-2.9,2.9-5.8,5.7-8.6,8.6c-0.2,0.2-0.5,0.4-0.7,0.5
			c0.1-0.1,0.1-0.1,0.2-0.2l0.1-0.1c0.3-0.4,0.2-1.1-0.2-1.4l-0.1-0.1L25,36.5c0-0.2,0-0.4,0-0.6c0-0.1,0-0.1,0-0.2l-0.1-1l0-0.4
			c0-0.5-0.4-0.9-0.9-0.9l-0.6,0c-0.5,0-0.9-0.1-1.4-0.1c-0.2,0-0.3,0-0.3,0c0,0,0,0,0,0c-0.1-0.2-0.3-0.3-0.3-0.3
			c-0.2-0.1-0.4-0.2-0.6-0.2c-0.2,0-0.5,0.1-0.6,0.2c-0.1,0.1-0.1,0.1-0.2,0.2c0-0.1,0.1-0.2,0.1-0.3c0,0,0,0,0-0.1
			c3.2-3.2,6.4-6.4,9.6-9.5L30.4,22.5 M18.5,37.8c0,0.4,0.2,0.7,0.3,0.9c0.1,0.1,0.2,0.2,0.4,0.4c0.1,0.1,0.2,0.2,0.3,0.3
			c0.3,0.4,0.7,0.5,1,0.5c-0.2,0.1-0.4,0.1-0.5,0.2l-2.1,0.6c0,0-0.1,0-0.1,0c0,0,0,0,0,0C18,39.6,18.3,38.7,18.5,37.8 M30.4,21.1
			c0,0-0.1,0.1-0.1,0.1C26.6,24.9,23,28.4,19.4,32c-0.1,0.1-0.2,0.3-0.3,0.5c-0.8,2.6-1.5,5.2-2.3,7.7c-0.1,0.3-0.1,0.6,0.1,0.8
			c0.2,0.3,0.5,0.5,0.8,0.5c0.1,0,0.3,0,0.4-0.1c2.3-0.7,4.7-1.4,7-2.1c0.6-0.2,1.1-0.5,1.6-0.9c3.4-3.4,6.9-6.9,10.4-10.3
			c0.1-0.1,0.2-0.1,0.3-0.2C35,25.7,32.7,23.4,30.4,21.1L30.4,21.1z M20.5,38.7c-0.1,0-0.2,0-0.3-0.1c-0.2-0.2-0.4-0.4-0.6-0.6
			c-0.1-0.1-0.1-0.2-0.1-0.3c0.4-1.3,0.8-2.7,1.2-4c0,0,0,0,0,0c0,0,0.1,0.1,0.1,0.1c0.3,0.4,0.7,0.4,1.1,0.5c0.6,0,1.3,0.1,1.9,0.2
			c0,0.5,0.1,0.9,0.1,1.4c0,0.2,0.1,0.5,0,0.7c0,0.3,0.1,0.6,0.4,0.8c0.1,0.1,0.2,0.1,0.3,0.2c0,0,0,0.1-0.1,0.1
			c-0.5,0.2-1.1,0.3-1.6,0.5c-0.8,0.2-1.5,0.4-2.3,0.7C20.6,38.7,20.6,38.7,20.5,38.7L20.5,38.7z"/>
	</g>
	<g>
		<path fill="#FFFFFF" d="M36.7,16.9L36.7,16.9c0.3,0,0.7,0.2,1,0.4c1.2,1.2,2.3,2.2,3.2,3.2c0.6,0.6,0.6,1.4,0,2
			c-0.1,0.1-0.1,0.1-0.2,0.2l-5.2-5.2c0.2-0.2,0.4-0.3,0.6-0.5C36.3,17,36.5,16.9,36.7,16.9 M36.7,15.9c-0.4,0-0.8,0.1-1.2,0.4
			c-0.5,0.4-1,0.9-1.4,1.3c2.2,2.2,4.4,4.4,6.6,6.6c0.3-0.3,0.6-0.6,0.9-0.9c1-1,1-2.4,0-3.4c-1.1-1.1-2.2-2.2-3.2-3.3
			C37.9,16.1,37.3,15.9,36.7,15.9L36.7,15.9z"/>
	</g>
	<g>
		<path fill="#FFFFFF" d="M32.9,20l5.5,5.5l0,0l-2.8-2.8L32.9,20L32.9,20 M32.9,18.6c-0.5,0.5-1,0.9-1.5,1.4
			c2.3,2.3,4.6,4.6,6.9,6.9c0.5-0.5,1-1,1.5-1.4C37.5,23.1,35.2,20.9,32.9,18.6L32.9,18.6z"/>
	</g>
</g>
</svg>
