<?xml version="1.0" encoding="utf-8"?>
<!-- Generator: Adobe Illustrator 18.1.0, SVG Export Plug-In . SVG Version: 6.00 Build 0)  -->
<svg version="1.1" id="Layer_1" xmlns="http://www.w3.org/2000/svg" xmlns:xlink="http://www.w3.org/1999/xlink" x="0px" y="0px"
	 viewBox="0 0 60 60" enable-background="new 0 0 60 60" xml:space="preserve">
<rect x="8.8" y="8.6" transform="matrix(-0.7071 0.7071 -0.7071 -0.7071 72.0494 29.5719)" fill="#349C8C" width="42.2" height="42.2"/>
<g>
	<rect x="13.1" y="19.6" fill="none" width="31.7" height="23.8"/>
	<g enable-background="new    ">
		<path fill="#FFFFFF" d="M28.7,34h-6l-1.2,3h-3.8l6.4-16h3.4l6.3,16h-3.8L28.7,34z M27.7,31.2l-2-5.4l-2,5.4H27.7z"/>
		<path fill="#FFFFFF" d="M37.1,19.8c1.1,0,2,0.9,2,2s-0.9,2-2,2c-1.1,0-2-0.9-2-2S35.9,19.8,37.1,19.8z M38.8,26.4V37h-3.4V26.4
			H38.8z"/>
	</g>
</g>
</svg>
