<?xml version="1.0" encoding="utf-8"?>
<!-- Generator: Adobe Illustrator 18.1.0, SVG Export Plug-In . SVG Version: 6.00 Build 0)  -->
<svg version="1.1" id="Layer_1" xmlns="http://www.w3.org/2000/svg" xmlns:xlink="http://www.w3.org/1999/xlink" x="0px" y="0px"
	 viewBox="0 0 60 60" enable-background="new 0 0 60 60" xml:space="preserve">
<rect x="8.9" y="8.7" transform="matrix(-0.7071 0.7071 -0.7071 -0.7071 72.4874 29.6895)" fill="#349C8C" width="42.4" height="42.4"/>
<rect x="8.2" y="20.8" fill="none" width="42.4" height="23.9"/>
<g enable-background="new    ">
	<path fill="#FFFFFF" d="M18.4,22.2c2,0,4.1,0.3,6,2.1c1.3,1.3,2.2,3.1,2.2,5.4c0,2.4-0.8,4.1-2.1,5.3c-2.1,2.1-4.7,2.3-6,2.3h-4.9
		V22.2H18.4z M17.2,34.3h0.9c0.7,0,2.3-0.1,3.4-1c0.8-0.7,1.5-2,1.5-3.6c0-1.6-0.7-2.7-1.2-3.3c-1.1-1.1-2.6-1.3-3.7-1.3h-0.9V34.3z
		"/>
	<path fill="#FFFFFF" d="M35.1,37.3h-2l-5-10.1h3.6l2.6,5.4l2.6-5.5h1.7l2.6,5.5l2.6-5.4h3.6l-5,10.1h-2l-2.5-5.7L35.1,37.3z"/>
</g>
</svg>
