<?xml version="1.0" encoding="utf-8"?>
<!-- Generator: Adobe Illustrator 18.1.0, SVG Export Plug-In . SVG Version: 6.00 Build 0)  -->
<svg version="1.1" id="Layer_1" xmlns="http://www.w3.org/2000/svg" xmlns:xlink="http://www.w3.org/1999/xlink" x="0px" y="0px"
	 viewBox="0 0 60 60" enable-background="new 0 0 60 60" xml:space="preserve">
<g>
	<path fill="#6B6B6B" d="M0,0C20,0,39.9,0,59.8,0c0,20,0,40,0,60C39.9,60,20,60,0,60c0-0.1,0-0.1,0-0.2c0-7.4,0-14.7,0-22.1
		c0-0.1,0-0.2,0-0.3c2.3,0,4.7,0,7,0c0,0,0-0.1,0-0.1c-0.2,0-0.4-0.1-0.6-0.1c-0.8-0.2-1.6-0.3-2.5-0.5c-0.4-0.1-0.5-0.3-0.2-0.6
		c1.2-1.5,2.4-3,3.7-4.5c0.2-0.3,0.5-0.4,0.9-0.4c1.4,0,2.8,0,4.2,0.1c0.6,0,0.7,0.1,0.6,0.7c-0.1,1.3-0.1,2.7-0.2,4
		c0,0.4-0.1,0.5-0.5,0.6c-0.6,0.2-1.2,0.4-1.9,0.6c-0.2,0.1-0.5,0.2-0.7,0.2c0,0,0,0,0,0c2.5,0,4.9,0,7.4,0
		c-0.1-0.1-0.1-0.1-0.2-0.2c-0.5-0.2-0.9-0.4-1.4-0.6c-0.5-0.2-0.6-0.5-0.6-1c0-2,0.1-4,0.1-6c0-2.4,0.1-4.9,0.1-7.3
		c0-0.1,0-0.3,0-0.5c-0.1,0.1-0.2,0.2-0.3,0.3c-2.7,2.9-5.3,5.8-8,8.6c-1.7,1.8-3.4,3.7-5.1,5.5c-0.5,0.5-1.1,0.7-1.7,1
		c0-0.2,0-0.3,0-0.4c0-12,0-24,0-36C0,0.6,0,0.3,0,0z M34.5,32.3C34.5,32.4,34.5,32.4,34.5,32.3c0.1,0.1,0.2,0.1,0.2,0.2
		c1,0.3,2,0.5,3,0.8c0.3,0.1,0.4,0.2,0.3,0.5c-0.2,0.8-0.4,1.5-0.6,2.3c-0.1,0.5-0.4,0.6-0.8,0.7c-0.8,0.1-1.7,0.2-2.5,0
		c-2.2-0.3-3.8-1.5-4.5-3.7c-0.5-1.6-0.3-3.2,0.4-4.7c1.8-4,5.4-6.1,9.9-5.4c0.7,0.1,0.8,0.2,0.7,0.9c0,1.2-0.1,2.4-0.1,3.6
		c0,0.1,0,0.2,0,0.3c0,0,0.1,0,0.1,0c0-0.1,0.1-0.2,0.1-0.3c0.5-1.4,0.9-2.8,1.4-4.2c0.2-0.5,0.1-0.8-0.5-0.9
		c-0.6-0.1-1.2-0.2-1.9-0.3c-2.4-0.3-4.7,0-6.9,1c-2.7,1.2-4.7,3.2-5.6,6.1c-0.6,1.7-0.5,3.3,0.3,4.9c1,1.8,2.6,2.7,4.6,3.1
		c2.4,0.4,4.7-0.1,6.9-0.9c0.2-0.1,0.3-0.2,0.4-0.4c0.4-1.1,0.7-2.2,1-3.2c0.1-0.3,0-0.5-0.4-0.5c-0.1,0-0.2,0-0.2,0
		c-1.7,0-3.5,0-5.2,0C34.7,32.3,34.6,32.3,34.5,32.3z M49.8,37.4C49.8,37.4,49.8,37.4,49.8,37.4c2.5,0.1,4.9,0.1,7.4,0.1
		c-0.1-0.1-0.1-0.1-0.2-0.2c-0.5-0.2-1-0.4-1.5-0.6c-0.4-0.1-0.5-0.4-0.5-0.8c0-0.8,0-1.6,0-2.4c0-3.7,0.1-7.4,0.1-11
		c0-0.1,0-0.3,0-0.5c-0.2,0.1-0.3,0.2-0.3,0.3c-4.2,4.5-8.4,9.1-12.6,13.6c-0.5,0.6-1.2,1.1-1.9,1.3c-0.1,0-0.2,0.1-0.3,0.2
		c2.4,0,4.7,0,7,0c-0.3-0.1-0.6-0.2-0.9-0.3c-0.7-0.2-1.4-0.3-2.1-0.5c-0.4-0.1-0.5-0.3-0.3-0.6c1.2-1.5,2.5-3,3.7-4.5
		c0.2-0.3,0.5-0.4,0.8-0.4c1.4,0,2.8,0,4.3,0.1c0.5,0,0.6,0.2,0.6,0.6c0,0.9-0.1,1.8-0.1,2.6c0,0.5,0,0.9-0.1,1.4
		c0,0.3-0.2,0.6-0.5,0.7c-0.1,0-0.1,0-0.2,0.1C51.4,36.9,50.6,37.1,49.8,37.4z M27.7,22.6C27.7,22.6,27.7,22.6,27.7,22.6
		c-2.4-0.1-4.8-0.1-7.2-0.1c0.6,0.3,1.2,0.5,1.8,0.7c0.5,0.2,0.6,0.3,0.5,0.9c-1,3.9-1.9,7.9-2.9,11.8c-0.1,0.4-0.3,0.6-0.6,0.7
		c-0.4,0.2-0.9,0.3-1.3,0.5c-0.2,0.1-0.4,0.2-0.6,0.2c0,0,0,0,0,0c2.3,0,4.6,0,6.9,0c-0.1-0.1-0.1-0.1-0.2-0.2
		c-0.5-0.2-1.1-0.4-1.6-0.6c-0.5-0.2-0.6-0.3-0.4-0.8c0.4-1.9,0.9-3.7,1.3-5.6c0.5-2.1,1-4.1,1.5-6.2c0.1-0.4,0.3-0.7,0.7-0.8
		c0.3-0.1,0.6-0.2,0.9-0.3C26.9,22.8,27.3,22.7,27.7,22.6z"/>
	<path fill="#FFFFFF" d="M17,37.3c-0.5-0.2-0.9-0.4-1.4-0.6c-0.5-0.2-0.6-0.5-0.6-1c0-2,0.1-4,0.1-6c0-2.4,0.1-4.9,0.1-7.3
		c0-0.1,0-0.3,0-0.5c-0.1,0.1-0.2,0.2-0.3,0.3c-2.7,2.9-5.3,5.8-8,8.6c-1.7,1.8-3.4,3.7-5.1,5.5c-0.5,0.5-1.1,0.7-1.7,1
		c0,0,0,0,0,0.1c0,0,0,0,0.1,0H7c0,0,0-0.1,0-0.1c-0.2,0-0.4-0.1-0.6-0.1c-0.8-0.2-1.6-0.3-2.5-0.5c-0.4-0.1-0.5-0.3-0.2-0.6
		c1.2-1.5,2.4-3,3.7-4.5c0.2-0.3,0.5-0.4,0.9-0.4c1.4,0,2.8,0,4.2,0.1c0.6,0,0.7,0.1,0.6,0.7c-0.1,1.3-0.1,2.7-0.2,4
		c0,0.4-0.1,0.5-0.5,0.6c-0.6,0.2-1.2,0.4-1.9,0.6c-0.2,0.1-0.5,0.2-0.7,0.2c0,0,0,0,0,0h7.4C17.2,37.3,17.1,37.3,17,37.3z
		 M13.2,27.9C13.2,27.9,13.2,27.9,13.2,27.9c-0.1,0.7-0.1,1.3-0.1,2c0,0.5-0.1,0.6-0.6,0.6c-0.8,0-1.6,0-2.4,0c-0.4,0-0.8,0-1.3,0
		c-0.1,0-0.3-0.1-0.3-0.2c0-0.1,0-0.3,0.1-0.4c1.4-1.5,2.7-2.9,4.1-4.4c0.1-0.1,0.2-0.1,0.3-0.2c0,0.1,0.1,0.2,0.1,0.4
		C13.2,26.5,13.2,27.2,13.2,27.9z"/>
	<path fill="#FFFFFF" d="M34.5,32.3c0.1,0,0.2,0,0.3,0c1.7,0,3.5,0,5.2,0c0.1,0,0.2,0,0.2,0c0.4,0,0.5,0.2,0.4,0.5
		c-0.3,1.1-0.7,2.2-1,3.2c-0.1,0.2-0.2,0.3-0.4,0.4c-2.2,0.8-4.5,1.3-6.9,0.9c-2-0.3-3.6-1.2-4.6-3.1c-0.8-1.6-0.8-3.2-0.3-4.9
		c1-2.8,2.9-4.8,5.6-6.1c2.2-1,4.5-1.3,6.9-1c0.6,0.1,1.3,0.2,1.9,0.3c0.5,0.1,0.7,0.3,0.5,0.9c-0.5,1.4-0.9,2.8-1.4,4.2
		c0,0.1-0.1,0.2-0.1,0.3c0,0-0.1,0-0.1,0c0-0.1,0-0.2,0-0.3c0-1.2,0.1-2.4,0.1-3.6c0-0.7-0.1-0.8-0.7-0.9c-4.5-0.7-8.1,1.4-9.9,5.4
		c-0.7,1.5-0.9,3.1-0.4,4.7c0.7,2.1,2.3,3.3,4.5,3.7c0.8,0.1,1.7,0.1,2.5,0c0.4-0.1,0.7-0.2,0.8-0.7c0.2-0.8,0.4-1.5,0.6-2.3
		c0.1-0.3,0-0.4-0.3-0.5c-1-0.3-2-0.6-3-0.8C34.7,32.5,34.6,32.5,34.5,32.3C34.5,32.4,34.5,32.4,34.5,32.3z"/>
	<path fill="#FFFFFF" d="M49.8,37.4c0.8-0.2,1.5-0.5,2.3-0.7c0.1,0,0.1-0.1,0.2-0.1c0.3-0.1,0.5-0.3,0.5-0.7c0-0.5,0-0.9,0.1-1.4
		c0-0.9,0.1-1.8,0.1-2.6c0-0.5-0.1-0.6-0.6-0.6c-1.4,0-2.8-0.1-4.3-0.1c-0.3,0-0.6,0.1-0.8,0.4c-1.2,1.5-2.5,3-3.7,4.5
		c-0.2,0.3-0.1,0.5,0.3,0.6c0.7,0.2,1.4,0.3,2.1,0.5c0.3,0.1,0.6,0.1,0.9,0.3c-2.3,0-4.6,0-7,0c0.1-0.1,0.2-0.1,0.3-0.2
		c0.8-0.3,1.4-0.7,1.9-1.3c4.2-4.6,8.4-9.1,12.6-13.6c0.1-0.1,0.2-0.2,0.3-0.3c0,0.2,0,0.3,0,0.5c0,3.7-0.1,7.4-0.1,11
		c0,0.8,0,1.6,0,2.4c0,0.4,0.2,0.6,0.5,0.8c0.5,0.2,1,0.4,1.5,0.6c0.1,0,0.1,0.1,0.2,0.2C54.7,37.4,52.3,37.4,49.8,37.4
		C49.8,37.4,49.8,37.4,49.8,37.4z M53.1,27.9C53.1,27.9,53.1,27.9,53.1,27.9c0.1-0.7,0.1-1.4,0-2.1c0-0.1-0.1-0.2-0.1-0.3
		c-0.1,0.1-0.3,0.1-0.3,0.2c-1.4,1.5-2.7,2.9-4.1,4.4c-0.1,0.1-0.2,0.3-0.1,0.4c0,0.1,0.2,0.2,0.3,0.2c1.2,0,2.5,0,3.7,0
		c0.4,0,0.5-0.1,0.5-0.6C53.1,29.3,53.1,28.6,53.1,27.9z"/>
	<path fill="#FFFFFF" d="M27.7,22.6c-0.4,0.1-0.8,0.2-1.1,0.3c-0.3,0.1-0.6,0.2-0.9,0.3c-0.4,0.1-0.6,0.4-0.7,0.8
		c-0.5,2.1-1,4.1-1.5,6.2c-0.4,1.9-0.9,3.7-1.3,5.6c-0.1,0.5-0.1,0.6,0.4,0.8c0.5,0.2,1.1,0.4,1.6,0.6c0.1,0,0.2,0.1,0.2,0.2
		c-2.3,0-4.6,0-6.9,0c0,0,0,0,0,0c0.2-0.1,0.4-0.2,0.6-0.2c0.4-0.2,0.9-0.3,1.3-0.5c0.3-0.1,0.5-0.4,0.6-0.7c1-3.9,1.9-7.9,2.9-11.8
		c0.1-0.5,0-0.7-0.5-0.9c-0.6-0.2-1.2-0.4-1.8-0.7C22.9,22.6,25.3,22.6,27.7,22.6C27.7,22.6,27.7,22.6,27.7,22.6z"/>
	<path fill="#6B6B6B" d="M13.1,27.9c0,0.7,0,1.3,0,2c0,0.5-0.1,0.6-0.6,0.6c-0.8,0-1.6,0-2.4,0c-0.4,0-0.8,0-1.3,0
		c-0.1,0-0.3-0.1-0.3-0.2c0-0.1,0-0.3,0.1-0.4c1.4-1.5,2.7-2.9,4.1-4.4c0.1-0.1,0.2-0.1,0.3-0.2c0,0.1,0.1,0.2,0.1,0.4
		C13.2,26.5,13.2,27.2,13.1,27.9C13.2,27.9,13.2,27.9,13.1,27.9z"/>
	<path fill="#6B6B6B" d="M53.1,27.9c0,0.7,0,1.4,0,2.1c0,0.4-0.1,0.6-0.5,0.6c-1.2,0-2.5,0-3.7,0c-0.1,0-0.3-0.1-0.3-0.2
		c0-0.1,0-0.3,0.1-0.4c1.3-1.5,2.7-2.9,4.1-4.4c0.1-0.1,0.2-0.1,0.3-0.2c0,0.1,0.1,0.2,0.1,0.3C53.1,26.5,53.1,27.2,53.1,27.9
		C53.1,27.9,53.1,27.9,53.1,27.9z"/>
</g>
<g>
</g>
<g>
</g>
<g>
</g>
<g>
</g>
<g>
</g>
<g>
</g>
</svg>
