<?xml version="1.0" encoding="utf-8"?>
<!-- Generator: Adobe Illustrator 18.1.0, SVG Export Plug-In . SVG Version: 6.00 Build 0)  -->
<svg version="1.1" id="Layer_1" xmlns="http://www.w3.org/2000/svg" xmlns:xlink="http://www.w3.org/1999/xlink" x="0px" y="0px"
	 viewBox="0 0 60 60" enable-background="new 0 0 60 60" xml:space="preserve">
<rect x="8.8" y="8.6" transform="matrix(-0.7071 0.7071 -0.7071 -0.7071 72.2978 29.6452)" fill="#349C8C" width="42.4" height="42.4"/>
<g>
	<rect x="12.1" y="20.4" fill="none" width="35.3" height="26.5"/>
	<g enable-background="new    ">
		<path fill="#FFFFFF" d="M25,21.9c1.4,0,3,0.2,4.2,1.3c1.4,1.2,1.6,2.8,1.6,3.9c0,2-0.8,3.2-1.4,3.8c-1.3,1.3-3,1.4-4.1,1.4H23v5.7
			h-3.7V21.9H25z M23,29.4h1.3c0.5,0,1.4,0,2-0.6c0.3-0.3,0.6-0.9,0.6-1.6c0-0.7-0.2-1.2-0.6-1.6C25.8,25.1,25,25,24.3,25H23V29.4z"
			/>
		<path fill="#FFFFFF" d="M39.4,30.1c-0.5-0.3-1.2-0.6-1.9-0.6c-0.4,0-0.8,0.1-1,0.3c-0.1,0.1-0.2,0.3-0.2,0.5
			c0,0.2,0.2,0.4,0.3,0.5c0.2,0.1,0.6,0.2,1,0.4l0.9,0.3c0.6,0.2,1.2,0.4,1.8,0.9c0.6,0.6,0.8,1.2,0.8,2.1c0,1.4-0.6,2.4-1.1,2.8
			c-1.1,1.1-2.4,1.2-3.5,1.2c-1.5,0-3-0.3-4.4-1.6l1.5-2.4c0.3,0.3,0.8,0.6,1.2,0.8c0.5,0.2,1,0.3,1.5,0.3c0.2,0,0.8,0,1.1-0.2
			c0.2-0.2,0.4-0.4,0.4-0.7c0-0.2-0.1-0.4-0.4-0.6c-0.2-0.1-0.6-0.2-1.1-0.4l-0.9-0.3c-0.6-0.2-1.3-0.5-1.7-1
			c-0.5-0.5-0.8-1.1-0.8-2c0-1,0.4-1.9,1-2.5c1-0.9,2.3-1.1,3.3-1.1c1.6,0,2.7,0.4,3.6,0.9L39.4,30.1z"/>
	</g>
</g>
</svg>
