<?xml version="1.0" encoding="utf-8"?>
<!-- Generator: Adobe Illustrator 18.1.0, SVG Export Plug-In . SVG Version: 6.00 Build 0)  -->
<svg version="1.1" id="Layer_1" xmlns="http://www.w3.org/2000/svg" xmlns:xlink="http://www.w3.org/1999/xlink" x="0px" y="0px"
	 viewBox="0 0 60 60" enable-background="new 0 0 60 60" xml:space="preserve">
<rect x="8.9" y="8.9" transform="matrix(0.7071 -0.7071 0.7071 0.7071 -12.4264 30)" fill="#359D8D" width="42.2" height="42.2"/>
<g>
	<path fill="none" stroke="#FFFFFF" stroke-miterlimit="10" d="M44.5,33.4c-0.3-3.5-2.2-8.9-2.5-9.5c-0.3-0.7-0.6-0.9-0.6-0.9
		s-0.1-0.6-0.2-0.7c-0.1-0.1-0.8-0.7-2.1-1c-1.3-0.3-2.3-0.1-2.4-0.1c-0.1,0.1-0.3,0.5-0.5,0.5c-0.4,0.2-0.8,0.3-1.7,0.8
		c-0.9,0.5-2.3,0.6-4.1,0.6c-1.8,0-3.1-0.1-4.1-0.6c-0.9-0.5-1.3-0.7-1.7-0.9c-0.2-0.1-0.4-0.4-0.5-0.5c0-0.1-1.1-0.3-2.4,0.1
		c-1.3,0.3-2,0.9-2.1,1c-0.1,0.1-0.2,0.7-0.2,0.7s-0.3,0.3-0.6,0.9s-2.2,6-2.5,9.5c-0.3,3.5-0.1,5.9,0.8,6.6
		c0.9,0.7,2.8,0.6,4.9-1.1c2.1-1.8,3.1-3.4,8.3-3.4s6.2,1.6,8.3,3.4c2.1,1.8,3.9,1.8,4.9,1.1C44.6,39.3,44.8,36.9,44.5,33.4z"/>
	<circle fill="#FFFFFF" cx="26.1" cy="31.3" r="3.1"/>
	<circle fill="#359D8D" cx="26.1" cy="31.3" r="2.3"/>
	<circle fill="#FFFFFF" cx="34.6" cy="31.5" r="2.9"/>
	<circle fill="#359D8D" cx="34.6" cy="31.5" r="1.9"/>
	<circle fill="#FFFFFF" cx="21.9" cy="26.3" r="2.9"/>
	<circle fill="#359D8D" cx="21.9" cy="26.3" r="1.9"/>
	<path fill="#FFFFFF" d="M27.4,32.2c0.3,0,0.7-0.1,1-0.1c0.1-0.3,0.1-0.5,0.1-0.8c0-0.2,0-0.5-0.1-0.7c-0.3,0-0.7,0-1-0.1
		c-0.7-0.1-0.6-1.1-0.6-1.6c0,0,0,0,0,0c-0.2-0.1-0.5-0.1-0.8-0.1c-0.3,0-0.5,0-0.8,0.1c0,0.5,0.1,1.5-0.6,1.6c-0.3,0-0.7,0.1-1,0.1
		c-0.1,0.2-0.1,0.4-0.1,0.7c0,0.3,0,0.6,0.1,0.8c0.3,0,0.6,0,0.9,0.1c0.6,0.1,0.6,0.9,0.6,1.4c0.2,0.1,0.5,0.1,0.8,0.1
		c0.3,0,0.5,0,0.8-0.1C26.8,33.1,26.7,32.3,27.4,32.2z"/>
	<path fill="#FFFFFF" d="M28.1,26.5c0,0.3-0.2,0.6-0.6,0.6h-0.3c-0.3,0-0.6-0.2-0.6-0.6l0,0c0-0.3,0.2-0.6,0.6-0.6h0.3
		C27.9,25.9,28.1,26.2,28.1,26.5L28.1,26.5z"/>
	<path fill="#FFFFFF" d="M34.3,26.5c0,0.3-0.2,0.6-0.6,0.6h-0.3c-0.3,0-0.6-0.2-0.6-0.6l0,0c0-0.3,0.2-0.6,0.6-0.6h0.3
		C34,25.9,34.3,26.2,34.3,26.5L34.3,26.5z"/>
	<circle fill="#FFFFFF" cx="36.7" cy="26.4" r="1"/>
	<circle fill="#FFFFFF" cx="41.2" cy="26.4" r="1"/>
	<circle fill="#FFFFFF" cx="38.9" cy="24.1" r="1"/>
	<circle fill="#FFFFFF" cx="38.9" cy="28.6" r="1"/>
	<circle fill="#FFFFFF" cx="30.5" cy="26.5" r="1.8"/>
	<circle fill="#359D8D" cx="30.5" cy="26.5" r="1.5"/>
</g>
</svg>
