<?xml version="1.0" encoding="utf-8"?>
<!-- Generator: Adobe Illustrator 18.1.0, SVG Export Plug-In . SVG Version: 6.00 Build 0)  -->
<svg version="1.1" id="Layer_1" xmlns="http://www.w3.org/2000/svg" xmlns:xlink="http://www.w3.org/1999/xlink" x="0px" y="0px"
	 viewBox="0 0 60 60" enable-background="new 0 0 60 60" xml:space="preserve">
<rect x="8.9" y="8.9" transform="matrix(0.7071 -0.7071 0.7071 0.7071 -12.4264 30)" fill="#349C8C" width="42.2" height="42.2"/>
<g>
	<g>
		<path fill="none" stroke="#FFFFFF" stroke-miterlimit="10" d="M43.7,25.4c0,4,0,7.9,0,11.9c0,0,0,0.1,0,0.1
			c-0.3,1.9-1.8,3.2-3.7,3.2c-6.3,0-12.5,0-18.8,0c-1.6,0-2.8-0.7-3.5-2.2c-0.2-0.3-0.2-0.7-0.3-1.1c0-3.9,0-7.9,0-11.8
			c0-0.1,0-0.1,0-0.2c0.2-1.3,0.9-2.3,2-2.8c0.4-0.2,0.6-0.4,0.6-0.8c0-0.4,0.2-0.6,0.6-0.6c1.2,0,2.4,0,3.6,0
			c0.3,0,0.5,0.2,0.6,0.5c0,0.2,0,0.3,0,0.5c0.7,0,1.3,0,2,0c0.3,0,0.6,0.1,0.8,0c0.2-0.1,0.2-0.5,0.3-0.7c0,0,0,0,0-0.1
			c0.4-1,1.3-1.9,2.7-1.8c1.8,0.1,3.6,0,5.4,0c0.8,0,1.4,0.3,1.9,0.9c0.4,0.4,0.6,1,0.8,1.5c0.1,0.2,0.2,0.2,0.3,0.2
			c0.3,0,0.7,0,1,0c1.4,0,2.5,0.7,3.2,1.9C43.4,24.4,43.5,24.9,43.7,25.4z M26.3,31c0,3.8,3,6.8,6.8,6.9c3.8,0,6.8-3,6.9-6.8
			c0-3.8-3.1-6.9-6.8-6.9C29.4,24.2,26.3,27.3,26.3,31z M22.1,25.8c0-0.6-0.5-1-1-1.1c-0.6,0-1.1,0.5-1.1,1.1c0,0.6,0.5,1,1.1,1
			C21.6,26.8,22.1,26.4,22.1,25.8z"/>
		<path fill="none" stroke="#FFFFFF" stroke-miterlimit="10" d="M38.9,31c0,3.2-2.6,5.8-5.8,5.8c-3.2,0-5.8-2.6-5.8-5.8
			c0-3.2,2.6-5.8,5.8-5.8C36.3,25.3,38.9,27.9,38.9,31z"/>
	</g>
</g>
</svg>
