<?xml version="1.0" encoding="utf-8"?>
<!-- Generator: Adobe Illustrator 18.1.0, SVG Export Plug-In . SVG Version: 6.00 Build 0)  -->
<svg version="1.1" id="Layer_1" xmlns="http://www.w3.org/2000/svg" xmlns:xlink="http://www.w3.org/1999/xlink" x="0px" y="0px"
	 viewBox="0 0 107 100" enable-background="new 0 0 107 100" xml:space="preserve">
<g>
	<polygon fill="#1C7293" points="103,25.5 52.4,0.5 22.9,16.3 83.5,15.9 	"/>
	<polygon fill="#1C6693" points="103,25.5 93.6,25.6 93.7,25.6 53.4,76.6 106.7,50.7 	"/>
	<polygon fill="#1F5D7F" points="93.6,25.6 103,25.5 83.5,15.9 	"/>
	<polygon fill="#1C6693" points="12.5,26.1 4.6,26.1 0.6,50.9 53.4,76.6 12.4,26.1 	"/>
	<polygon fill="#1B5396" points="22.8,16.3 4.6,26.1 22.7,16.4 	"/>
	<polygon fill="#1F5D7F" points="22.7,16.4 4.6,26.1 12.5,26.1 	"/>
	<polygon opacity="0.6" fill="#42CC69" points="22.9,16.3 22.8,16.3 22.8,16.3 	"/>
	<polygon opacity="0.6" fill="#42CC69" points="27.7,26 53.4,76.6 78.7,25.7 	"/>
	<polygon fill="#1B5396" points="27.7,26 78.7,25.7 83.5,15.9 22.9,16.3 22.8,16.3 	"/>
	<polygon opacity="0.6" fill="#44CC85" points="27.7,26 78.7,25.7 83.5,15.9 22.9,16.3 22.8,16.3 	"/>
	<polygon fill="#1B5396" points="93.6,25.6 78.7,25.7 53.4,76.6 93.7,25.6 	"/>
	<polygon opacity="0.6" fill="#44CC85" points="93.6,25.6 78.7,25.7 53.4,76.6 93.7,25.6 	"/>
	<polygon fill="#1B5396" points="78.7,25.7 93.6,25.6 83.5,15.9 	"/>
	<polygon fill="#1B5396" points="78.7,25.7 93.6,25.6 83.5,15.9 	"/>
	<polygon opacity="0.6" fill="#42CC69" points="78.7,25.7 93.6,25.6 83.5,15.9 	"/>
	<polygon fill="#1B5396" points="22.8,16.3 22.8,16.3 22.7,16.4 	"/>
	<polygon opacity="0.6" fill="#42CC69" points="22.8,16.3 22.8,16.3 22.7,16.4 	"/>
	<polygon fill="#1B5396" points="12.5,26.1 12.4,26.1 53.4,76.6 27.7,26 	"/>
	<polygon opacity="0.6" fill="#44CC85" points="12.5,26.1 12.4,26.1 53.4,76.6 27.7,26 	"/>
	<polygon fill="#1B5396" points="22.7,16.4 12.5,26.1 27.7,26 22.8,16.3 	"/>
	<polygon fill="#1B5396" points="22.7,16.4 12.5,26.1 27.7,26 22.8,16.3 	"/>
	<polygon opacity="0.6" fill="#42CC69" points="22.7,16.4 12.5,26.1 27.7,26 22.8,16.3 	"/>
</g>
<g>
	<path fill="#093979" d="M19.4,96.5c-0.2,0-0.4-0.1-0.5-0.3l-2.5-5.9l-0.7,1.4v4.4c0,0.3-0.1,0.4-0.4,0.4h-1.9
		c-0.3,0-0.4-0.1-0.4-0.4V81c0-0.3,0.1-0.4,0.4-0.4h1.9c0.3,0,0.4,0.1,0.4,0.4v6.2l3.1-6.3c0.1-0.2,0.2-0.3,0.5-0.3h2.1
		c0.3,0,0.4,0.2,0.3,0.5L18.2,88l3.6,8c0.1,0.3,0,0.5-0.3,0.5H19.4z"/>
	<path fill="#093979" d="M31.9,88.3c0,1.3-0.5,2.2-1.5,2.6l1.4,5.2c0.1,0.2-0.1,0.4-0.3,0.4h-2.1c-0.2,0-0.3-0.1-0.3-0.3l-1.3-5
		h-1.4v5c0,0.2-0.1,0.3-0.3,0.3H24c-0.2,0-0.3-0.1-0.3-0.3V80.9c0-0.2,0.1-0.3,0.3-0.3h5c1.9,0,2.9,1,2.9,2.9V88.3z M28.4,88.6
		c0.5,0,0.8-0.3,0.8-0.8V84c0-0.5-0.3-0.8-0.8-0.8h-2v5.3H28.4z"/>
	<path fill="#093979" d="M42.4,80.6c0.3,0,0.4,0.2,0.3,0.5L39,89.9v6.2c0,0.3-0.1,0.4-0.4,0.4h-1.9c-0.3,0-0.4-0.1-0.4-0.4v-6.2
		l-3.6-8.8c-0.1-0.3,0-0.5,0.3-0.5h2c0.2,0,0.4,0.1,0.5,0.3l2.2,5.7l2.2-5.7c0.1-0.2,0.2-0.3,0.5-0.3H42.4z"/>
	<path fill="#093979" d="M48.8,80.6c1.9,0,2.9,1,2.9,2.9v2.1c0,0.2-0.1,0.3-0.3,0.3h-2.1c-0.2,0-0.3-0.1-0.3-0.3V84
		c0-0.5-0.3-0.8-0.8-0.8h-1c-0.5,0-0.8,0.3-0.8,0.8v2.7l4.7,1.6c0.3,0.1,0.5,0.4,0.5,0.7v4.6c0,1.9-1,2.9-2.9,2.9h-2.2
		c-1.8,0-2.9-1-2.9-2.9v-2.1c0-0.2,0.1-0.3,0.3-0.3h2.1c0.2,0,0.3,0.1,0.3,0.3v1.5c0,0.5,0.3,0.8,0.8,0.8h1c0.5,0,0.8-0.3,0.8-0.8
		v-2.6l-4.7-1.5c-0.4-0.1-0.5-0.4-0.5-0.7v-4.7c0-1.9,1-2.9,2.9-2.9H48.8z"/>
	<path fill="#093979" d="M60.5,80.6c0.2,0,0.3,0.1,0.3,0.3v2c0,0.2-0.1,0.3-0.3,0.3h-2.3v13c0,0.2-0.1,0.3-0.3,0.3h-2.1
		c-0.2,0-0.3-0.1-0.3-0.3v-13h-2.3c-0.2,0-0.3-0.1-0.3-0.3v-2c0-0.2,0.1-0.3,0.3-0.3H60.5z"/>
	<path fill="#093979" d="M65.1,93.9h4.7c0.2,0,0.3,0.1,0.3,0.3v2c0,0.2-0.1,0.3-0.3,0.3h-7.1c-0.2,0-0.3-0.1-0.3-0.3V80.9
		c0-0.2,0.1-0.3,0.3-0.3h2.1c0.2,0,0.3,0.1,0.3,0.3V93.9z"/>
	<path fill="#093979" d="M74.1,80.6c0.2,0,0.3,0.1,0.3,0.3v15.3c0,0.2-0.1,0.3-0.3,0.3H72c-0.2,0-0.3-0.1-0.3-0.3V80.9
		c0-0.2,0.1-0.3,0.3-0.3H74.1z"/>
	<path fill="#093979" d="M84.4,80.6c0.3,0,0.4,0.2,0.3,0.5l-4.9,12.8h4.4c0.2,0,0.3,0.1,0.3,0.3v2c0,0.2-0.1,0.3-0.3,0.3h-7.7
		c-0.3,0-0.4-0.2-0.3-0.5L81,83.3h-4.1c-0.2,0-0.3-0.1-0.3-0.3v-2c0-0.2,0.1-0.3,0.3-0.3H84.4z"/>
	<path fill="#093979" d="M93.8,82.9c0,0.2-0.1,0.3-0.3,0.3h-5v4h3.8c0.2,0,0.3,0.1,0.3,0.3v2c0,0.2-0.1,0.3-0.3,0.3h-3.8v4h5
		c0.2,0,0.3,0.1,0.3,0.3v2c0,0.2-0.1,0.3-0.3,0.3h-7.3c-0.2,0-0.3-0.1-0.3-0.3V80.9c0-0.2,0.1-0.3,0.3-0.3h7.3
		c0.2,0,0.3,0.1,0.3,0.3V82.9z"/>
</g>
</svg>
