<?xml version="1.0" encoding="utf-8"?>
<!-- Generator: Adobe Illustrator 18.1.1, SVG Export Plug-In . SVG Version: 6.00 Build 0)  -->
<svg version="1.1" id="Layer_1" xmlns="http://www.w3.org/2000/svg" xmlns:xlink="http://www.w3.org/1999/xlink" x="0px" y="0px"
	 viewBox="0 0 106.8 96.7" enable-background="new 0 0 106.8 96.7" xml:space="preserve">
<polygon fill="#1F5D7F" points="22.3,15.9 4,25.7 14.7,28.5 "/>
<polygon fill="#1F5D7F" points="93.4,26.9 103.1,25.2 83.4,15.5 "/>
<polygon fill="#298562" points="73.4,32.3 97.8,29.1 83.4,15.5 "/>
<polygon fill="#298562" points="22.2,16 10.2,27.4 30.6,30.9 22.3,15.9 "/>
<polygon fill="#1C7291" points="52.2,0 22.3,15.9 83.4,15.5 "/>
<polygon fill="#1C6592" points="103.1,25.2 93.6,25.3 93.7,25.3 53.1,76.6 106.8,50.6 "/>
<polygon fill="#1C6592" points="12,25.7 4,25.7 0,50.7 53.1,76.6 11.9,25.7 "/>
<polygon opacity="0.6" fill="#42CC69" enable-background="new    " points="22.4,15.9 22.3,15.9 22.3,15.9 "/>
<polygon fill="#86E39F" points="27.3,25.7 53.1,76.6 78.6,25.4 "/>
<polygon fill="#349C8C" points="27.3,25.7 78.6,25.4 83.4,15.5 22.4,15.9 22.3,15.9 "/>
<polygon fill="#349C8C" points="93.6,25.3 78.6,25.4 53.1,76.6 93.7,25.3 "/>
<polygon fill="#1B5396" points="22.3,15.9 22.3,15.9 22.2,16 "/>
<polygon opacity="0.6" fill="#42CC69" enable-background="new    " points="22.3,15.9 22.3,15.9 22.2,16 "/>
<polygon fill="#349C8C" points="12,25.7 11.9,25.7 53.1,76.6 27.3,25.7 "/>
<g>
	<path fill="#093979" d="M18.9,96.7c-0.2,0-0.4-0.1-0.5-0.3l-2.5-6l-0.7,1.4v4.5c0,0.3-0.1,0.4-0.4,0.4h-1.9c-0.3,0-0.4-0.1-0.4-0.4
		V81c0-0.3,0.1-0.4,0.4-0.4h1.9c0.3,0,0.4,0.1,0.4,0.4v6.2l3.1-6.3c0.1-0.2,0.2-0.3,0.5-0.3h2.1c0.3,0,0.4,0.2,0.3,0.5l-3.5,6.9
		l3.6,8c0.1,0.3,0,0.5-0.3,0.5L18.9,96.7L18.9,96.7z"/>
	<path fill="#093979" d="M31.5,88.4c0,1.3-0.5,2.2-1.5,2.6l1.4,5.2c0.1,0.2-0.1,0.4-0.3,0.4H29c-0.2,0-0.3-0.1-0.3-0.3l-1.3-5H26v5
		c0,0.2-0.1,0.3-0.3,0.3h-2.1c-0.2,0-0.3-0.1-0.3-0.3V80.9c0-0.2,0.1-0.3,0.3-0.3h5c1.9,0,2.9,1,2.9,2.9V88.4z M28,88.7
		c0.5,0,0.8-0.3,0.8-0.8V84c0-0.5-0.3-0.8-0.8-0.8h-2v5.3h2V88.7z"/>
	<path fill="#093979" d="M42.1,80.6c0.3,0,0.4,0.2,0.3,0.5L38.6,90v6.2c0,0.3-0.1,0.4-0.4,0.4h-1.9c-0.3,0-0.4-0.1-0.4-0.4V90
		l-3.6-8.9c-0.1-0.3,0-0.5,0.3-0.5h2c0.2,0,0.4,0.1,0.5,0.3l2.2,5.7l2.2-5.7c0.1-0.2,0.2-0.3,0.5-0.3H42.1z"/>
	<path fill="#093979" d="M48.5,80.6c1.9,0,2.9,1,2.9,2.9v2.1c0,0.2-0.1,0.3-0.3,0.3H49c-0.2,0-0.3-0.1-0.3-0.3v-1.6
		c0-0.5-0.3-0.8-0.8-0.8h-1c-0.5,0-0.8,0.3-0.8,0.8v2.7l4.7,1.6c0.3,0.1,0.5,0.4,0.5,0.7v4.6c0,1.9-1,2.9-2.9,2.9h-2.2
		c-1.8,0-2.9-1-2.9-2.9v-2.1c0-0.2,0.1-0.3,0.3-0.3h2.1c0.2,0,0.3,0.1,0.3,0.3v1.5c0,0.5,0.3,0.8,0.8,0.8h1c0.5,0,0.8-0.3,0.8-0.8
		v-2.6l-4.7-1.5c-0.4-0.1-0.5-0.4-0.5-0.7v-4.7c0-1.9,1-2.9,2.9-2.9L48.5,80.6L48.5,80.6z"/>
	<path fill="#093979" d="M60.3,80.6c0.2,0,0.3,0.1,0.3,0.3v2c0,0.2-0.1,0.3-0.3,0.3H58v13.1c0,0.2-0.1,0.3-0.3,0.3h-2.1
		c-0.2,0-0.3-0.1-0.3-0.3V83.2h-2.3c-0.2,0-0.3-0.1-0.3-0.3v-2c0-0.2,0.1-0.3,0.3-0.3L60.3,80.6L60.3,80.6z"/>
	<path fill="#093979" d="M64.9,94h4.7c0.2,0,0.3,0.1,0.3,0.3v2c0,0.2-0.1,0.3-0.3,0.3h-7.1c-0.2,0-0.3-0.1-0.3-0.3V80.9
		c0-0.2,0.1-0.3,0.3-0.3h2.1c0.2,0,0.3,0.1,0.3,0.3L64.9,94L64.9,94z"/>
	<path fill="#093979" d="M74,80.6c0.2,0,0.3,0.1,0.3,0.3v15.4c0,0.2-0.1,0.3-0.3,0.3h-2.1c-0.2,0-0.3-0.1-0.3-0.3V80.9
		c0-0.2,0.1-0.3,0.3-0.3L74,80.6L74,80.6z"/>
	<path fill="#093979" d="M84.3,80.6c0.3,0,0.4,0.2,0.3,0.5l-4.9,12.9h4.5c0.2,0,0.3,0.1,0.3,0.3v2c0,0.2-0.1,0.3-0.3,0.3h-7.8
		c-0.3,0-0.4-0.2-0.3-0.5l4.8-12.8h-4.1c-0.2,0-0.3-0.1-0.3-0.3v-2c0-0.2,0.1-0.3,0.3-0.3h7.6V80.6z"/>
	<path fill="#093979" d="M93.8,82.9c0,0.2-0.1,0.3-0.3,0.3h-5v4h3.8c0.2,0,0.3,0.1,0.3,0.3v2c0,0.2-0.1,0.3-0.3,0.3h-3.8v4h5
		c0.2,0,0.3,0.1,0.3,0.3v2c0,0.2-0.1,0.3-0.3,0.3h-7.4c-0.2,0-0.3-0.1-0.3-0.3V80.9c0-0.2,0.1-0.3,0.3-0.3h7.4
		c0.2,0,0.3,0.1,0.3,0.3V82.9z"/>
</g>
</svg>
