<?xml version="1.0" encoding="utf-8"?>
<!-- Generator: Adobe Illustrator 18.1.1, SVG Export Plug-In . SVG Version: 6.00 Build 0)  -->
<svg version="1.1" id="Layer_1" xmlns="http://www.w3.org/2000/svg" xmlns:xlink="http://www.w3.org/1999/xlink" x="0px" y="0px"
	 viewBox="0 0 24.8 22.5" enable-background="new 0 0 24.8 22.5" xml:space="preserve">
<polygon fill="#1F5D7F" points="5.2,3.7 0.9,6 3.4,6.6 "/>
<polygon fill="#1F5D7F" points="21.7,6.2 23.9,5.8 19.4,3.6 "/>
<polygon fill="#298562" points="17.1,7.5 22.7,6.7 19.4,3.6 "/>
<polygon fill="#298562" points="5.2,3.7 2.4,6.4 7.1,7.2 5.2,3.7 "/>
<polygon fill="#1C7291" points="12.1,0 5.2,3.7 19.4,3.6 "/>
<polygon fill="#1C6592" points="23.9,5.8 21.7,5.9 21.8,5.9 12.3,17.8 24.8,11.7 "/>
<polygon fill="#1C6592" points="2.8,6 0.9,6 0,11.8 12.3,17.8 2.8,6 "/>
<polygon opacity="0.6" fill="#42CC69" enable-background="new    " points="5.2,3.7 5.2,3.7 5.2,3.7 "/>
<polygon fill="#86E39F" points="6.3,6 12.3,17.8 18.3,5.9 "/>
<polygon fill="#349C8C" points="6.3,6 18.3,5.9 19.4,3.6 5.2,3.7 5.2,3.7 "/>
<polygon fill="#349C8C" points="21.7,5.9 18.3,5.9 12.3,17.8 21.8,5.9 "/>
<polygon fill="#1B5396" points="5.2,3.7 5.2,3.7 5.2,3.7 "/>
<polygon opacity="0.6" fill="#42CC69" enable-background="new    " points="5.2,3.7 5.2,3.7 5.2,3.7 "/>
<polygon fill="#349C8C" points="2.8,6 2.8,6 12.3,17.8 6.3,6 "/>
<g>
	<path fill="#093979" d="M4.4,22.4c0,0-0.1,0-0.1-0.1L3.7,21l-0.2,0.3v1c0,0.1,0,0.1-0.1,0.1H3c-0.1,0-0.1,0-0.1-0.1v-3.5
		c0-0.1,0-0.1,0.1-0.1h0.4c0.1,0,0.1,0,0.1,0.1v1.4l0.7-1.5c0,0,0-0.1,0.1-0.1h0.5c0.1,0,0.1,0,0.1,0.1l-0.8,1.6l0.8,1.9
		c0,0.1,0,0.1-0.1,0.1L4.4,22.4L4.4,22.4z"/>
	<path fill="#093979" d="M7.3,20.5c0,0.3-0.1,0.5-0.3,0.6l0.3,1.2c0,0,0,0.1-0.1,0.1H6.7c0,0-0.1,0-0.1-0.1l-0.3-1.2H6v1.2
		c0,0,0,0.1-0.1,0.1H5.5c0,0-0.1,0-0.1-0.1v-3.6c0,0,0-0.1,0.1-0.1h1.2c0.4,0,0.7,0.2,0.7,0.7V20.5z M6.7,20.4v-0.9
		c0-0.1-0.1-0.2-0.2-0.2H6v1.2h0.5C6.5,20.6,6.7,20.5,6.7,20.4z"/>
	<path fill="#093979" d="M9.8,18.7c0.1,0,0.1,0,0.1,0.1L9,20.9v1.4c0,0.1,0,0.1-0.1,0.1H8.4c-0.1,0-0.1,0-0.1-0.1v-1.4l-0.8-2.1
		c0-0.1,0-0.1,0.1-0.1H8c0,0,0.1,0,0.1,0.1l0.5,1.3l0.5-1.3c0,0,0-0.1,0.1-0.1H9.8z"/>
	<path fill="#093979" d="M11.3,18.7c0.4,0,0.7,0.2,0.7,0.7v0.5c0,0,0,0.1-0.1,0.1h-0.5c0,0-0.1,0-0.1-0.1v-0.4
		c0-0.1-0.1-0.2-0.2-0.2h-0.2c-0.1,0-0.2,0.1-0.2,0.2v0.6l1.1,0.4c0.1,0,0.1,0.1,0.1,0.2v1.1c0,0.4-0.2,0.7-0.7,0.7h-0.5
		c-0.4,0-0.7-0.2-0.7-0.7v-0.5c0,0,0-0.1,0.1-0.1h0.5c0,0,0.1,0,0.1,0.1v0.3c0,0.1,0.1,0.2,0.2,0.2h0.2c0.1,0,0.2-0.1,0.2-0.2V21
		l-1.1-0.3c-0.1,0-0.1-0.1-0.1-0.2v-1.1c0-0.4,0.2-0.7,0.7-0.7L11.3,18.7L11.3,18.7z"/>
	<path fill="#093979" d="M14,18.7C14,18.7,14.1,18.7,14,18.7l0.1,0.5c0,0,0,0.1-0.1,0.1h-0.5v3c0,0,0,0.1-0.1,0.1h-0.5
		c0,0-0.1,0-0.1-0.1v-3.1h-0.5c0,0-0.1,0-0.1-0.1v-0.5c0,0,0-0.1,0.1-0.1L14,18.7L14,18.7z"/>
	<path fill="#093979" d="M15.1,21.8h1.1c0,0,0.1,0,0.1,0.1v0.5c0,0,0,0.1-0.1,0.1h-1.6c0,0-0.1,0-0.1-0.1v-3.6c0,0,0-0.1,0.1-0.1H15
		c0,0,0.1,0,0.1,0.1L15.1,21.8L15.1,21.8z"/>
	<path fill="#093979" d="M17.2,18.7C17.2,18.7,17.2,18.7,17.2,18.7l0.1,3.6c0,0,0,0.1-0.1,0.1h-0.5c0,0-0.1,0-0.1-0.1v-3.6
		c0,0,0-0.1,0.1-0.1L17.2,18.7L17.2,18.7z"/>
	<path fill="#093979" d="M19.6,18.7c0.1,0,0.1,0,0.1,0.1l-1.1,3h1c0,0,0.1,0,0.1,0.1v0.5c0,0,0,0.1-0.1,0.1h-1.8
		c-0.1,0-0.1,0-0.1-0.1l1.1-3h-1c0,0-0.1,0-0.1-0.1v-0.5c0,0,0-0.1,0.1-0.1L19.6,18.7L19.6,18.7z"/>
	<path fill="#093979" d="M21.8,19.3C21.8,19.3,21.8,19.3,21.8,19.3l-1.2,0.1v0.9h0.9c0,0,0.1,0,0.1,0.1v0.5c0,0,0,0.1-0.1,0.1h-0.9
		v0.9h1.2c0,0,0.1,0,0.1,0.1v0.5c0,0,0,0.1-0.1,0.1H20c0,0-0.1,0-0.1-0.1v-3.6c0,0,0-0.1,0.1-0.1h1.7c0,0,0.1,0,0.1,0.1V19.3z"/>
</g>
<g>
</g>
<g>
</g>
<g>
</g>
<g>
</g>
<g>
</g>
<g>
</g>
</svg>
