<?xml version="1.0" encoding="utf-8"?>
<!-- Generator: Adobe Illustrator 18.1.0, SVG Export Plug-In . SVG Version: 6.00 Build 0)  -->
<svg version="1.1" id="Layer_1" xmlns="http://www.w3.org/2000/svg" xmlns:xlink="http://www.w3.org/1999/xlink" x="0px" y="0px"
	 viewBox="-41.5 -73.5 207 207" enable-background="new -41.5 -73.5 207 207" xml:space="preserve">
<polygon fill="#1F5D7F" points="2.1,-42.8 -33.2,-23.8 -12.7,-18.5 "/>
<polygon fill="#1F5D7F" points="139.3,-21.6 158,-24.9 120.1,-43.6 "/>
<polygon fill="#298562" points="100.8,-11.2 147.8,-17.4 120.1,-43.6 "/>
<polygon fill="#298562" points="1.9,-42.6 -21.4,-20.6 18.1,-13.8 2.1,-42.8 "/>
<polygon fill="#1C7291" points="59.7,-73.5 2.1,-42.8 120.1,-43.6 "/>
<polygon fill="#1C6592" points="158,-24.9 139.7,-24.7 139.9,-24.7 61.6,74.4 165.2,24.1 "/>
<polygon fill="#1C6592" points="-17.9,-23.8 -33.2,-23.8 -41,24.4 61.6,74.4 -18.1,-23.8 "/>
<polygon opacity="0.6" fill="#42CC69" enable-background="new    " points="2.3,-42.8 2.1,-42.8 2.1,-42.8 "/>
<polygon fill="#86E39F" points="11.7,-23.9 61.6,74.4 110.8,-24.5 "/>
<polygon fill="#349C8C" points="11.7,-23.9 110.8,-24.5 120.1,-43.6 2.3,-42.8 2.1,-42.8 "/>
<polygon fill="#349C8C" points="139.7,-24.7 110.8,-24.5 61.6,74.4 139.9,-24.7 "/>
<polygon fill="#1B5396" points="2.1,-42.8 2.1,-42.8 1.9,-42.6 "/>
<polygon opacity="0.6" fill="#42CC69" enable-background="new    " points="2.1,-42.8 2.1,-42.8 1.9,-42.6 "/>
<polygon fill="#349C8C" points="-17.9,-23.8 -18.1,-23.8 61.6,74.4 11.7,-23.9 "/>
<g>
	<path fill="#093979" d="M-4.5,113.1c-0.4,0-0.8-0.2-1-0.6l-4.9-11.5l-1.4,2.7v8.6c0,0.6-0.2,0.8-0.8,0.8h-3.7
		c-0.6,0-0.8-0.2-0.8-0.8V82.9c0-0.6,0.2-0.8,0.8-0.8h3.7c0.6,0,0.8,0.2,0.8,0.8v12l6-12.2c0.2-0.4,0.4-0.6,1-0.6h4.1
		c0.6,0,0.8,0.4,0.6,1l-6.8,13.4l7,15.5c0.2,0.6,0,1-0.6,1H-4.5z"/>
	<path fill="#093979" d="M19.8,97.1c0,2.5-1,4.3-2.9,5.1l2.7,10.1c0.2,0.4-0.2,0.8-0.6,0.8H15c-0.4,0-0.6-0.2-0.6-0.6l-2.5-9.7H9.1
		v9.7c0,0.4-0.2,0.6-0.6,0.6H4.5c-0.4,0-0.6-0.2-0.6-0.6V82.7c0-0.4,0.2-0.6,0.6-0.6h9.7c3.7,0,5.6,1.9,5.6,5.6V97.1z M13,97.7
		c1,0,1.6-0.6,1.6-1.6v-7.4c0-1-0.6-1.6-1.6-1.6H9.1v10.3H13V97.7z"/>
	<path fill="#093979" d="M40.2,82.2c0.6,0,0.8,0.4,0.6,1l-7.2,17.1v12c0,0.6-0.2,0.8-0.8,0.8h-3.7c-0.6,0-0.8-0.2-0.8-0.8v-12
		l-7-17.1c-0.2-0.6,0-1,0.6-1h3.9c0.4,0,0.8,0.2,1,0.6l4.3,11.1l4.3-11.1c0.2-0.4,0.4-0.6,1-0.6H40.2z"/>
	<path fill="#093979" d="M52.7,82.2c3.7,0,5.6,1.9,5.6,5.6v4.1c0,0.4-0.2,0.6-0.6,0.6h-4.1c-0.4,0-0.6-0.2-0.6-0.6v-3.1
		c0-1-0.6-1.6-1.6-1.6h-1.9c-1,0-1.6,0.6-1.6,1.6V94l9.1,3.1c0.6,0.2,1,0.8,1,1.4v8.9c0,3.7-1.9,5.6-5.6,5.6h-4.3
		c-3.5,0-5.6-1.9-5.6-5.6v-4.1c0-0.4,0.2-0.6,0.6-0.6h4.1c0.4,0,0.6,0.2,0.6,0.6v2.9c0,1,0.6,1.6,1.6,1.6h1.9c1,0,1.6-0.6,1.6-1.6
		v-5.1l-9.1-2.9c-0.8-0.2-1-0.8-1-1.4v-9.1c0-3.7,1.9-5.6,5.6-5.6H52.7z"/>
	<path fill="#093979" d="M75.4,82.2c0.4,0,0.6,0.2,0.6,0.6v3.9c0,0.4-0.2,0.6-0.6,0.6h-4.5v25.3c0,0.4-0.2,0.6-0.6,0.6h-4.1
		c-0.4,0-0.6-0.2-0.6-0.6V87.2h-4.5c-0.4,0-0.6-0.2-0.6-0.6v-3.9c0-0.4,0.2-0.6,0.6-0.6H75.4z"/>
	<path fill="#093979" d="M84.3,108h9.1c0.4,0,0.6,0.2,0.6,0.6v3.9c0,0.4-0.2,0.6-0.6,0.6H79.7c-0.4,0-0.6-0.2-0.6-0.6V82.7
		c0-0.4,0.2-0.6,0.6-0.6h4.1c0.4,0,0.6,0.2,0.6,0.6V108z"/>
	<path fill="#093979" d="M101.8,82.2c0.4,0,0.6,0.2,0.6,0.6v29.7c0,0.4-0.2,0.6-0.6,0.6h-4.1c-0.4,0-0.6-0.2-0.6-0.6V82.7
		c0-0.4,0.2-0.6,0.6-0.6H101.8z"/>
	<path fill="#093979" d="M121.8,82.2c0.6,0,0.8,0.4,0.6,1l-9.5,24.9h8.6c0.4,0,0.6,0.2,0.6,0.6v3.9c0,0.4-0.2,0.6-0.6,0.6h-15
		c-0.6,0-0.8-0.4-0.6-1l9.3-24.7h-8c-0.4,0-0.6-0.2-0.6-0.6v-3.9c0-0.4,0.2-0.6,0.6-0.6h14.6V82.2z"/>
	<path fill="#093979" d="M140.1,86.6c0,0.4-0.2,0.6-0.6,0.6h-9.7V95h7.4c0.4,0,0.6,0.2,0.6,0.6v3.9c0,0.4-0.2,0.6-0.6,0.6h-7.4v7.8
		h9.7c0.4,0,0.6,0.2,0.6,0.6v3.9c0,0.4-0.2,0.6-0.6,0.6h-14.2c-0.4,0-0.6-0.2-0.6-0.6V82.7c0-0.4,0.2-0.6,0.6-0.6h14.2
		c0.4,0,0.6,0.2,0.6,0.6V86.6z"/>
</g>
</svg>
