<?xml version="1.0" encoding="utf-8"?>
<!-- Generator: Adobe Illustrator 18.1.1, SVG Export Plug-In . SVG Version: 6.00 Build 0)  -->
<svg version="1.1" id="Layer_1" xmlns="http://www.w3.org/2000/svg" xmlns:xlink="http://www.w3.org/1999/xlink" x="0px" y="0px"
	 viewBox="-73.1 -67.5 206.1 186.6" enable-background="new -73.1 -67.5 206.1 186.6" xml:space="preserve">
<polygon fill="#1F5D7F" points="-30,-36.8 -65.3,-17.8 -44.8,-12.5 "/>
<polygon fill="#1F5D7F" points="107.2,-15.6 125.9,-18.9 88,-37.6 "/>
<polygon fill="#298562" points="68.7,-5.2 115.7,-11.4 88,-37.6 "/>
<polygon fill="#298562" points="-30.2,-36.6 -53.5,-14.6 -14,-7.8 -30,-36.8 "/>
<polygon fill="#1C7291" points="27.6,-67.5 -30,-36.8 88,-37.6 "/>
<polygon fill="#1C6592" points="125.9,-18.9 107.6,-18.7 107.8,-18.7 29.5,80.3 133.1,30 "/>
<polygon fill="#1C6592" points="-50,-17.8 -65.3,-17.8 -73.1,30.3 29.5,80.3 -50.2,-17.8 "/>
<polygon opacity="0.6" fill="#42CC69" enable-background="new    " points="-29.8,-36.8 -30,-36.8 -30,-36.8 "/>
<polygon fill="#86E39F" points="-20.4,-17.9 29.5,80.3 78.7,-18.5 "/>
<polygon fill="#349C8C" points="-20.4,-17.9 78.7,-18.5 88,-37.6 -29.8,-36.8 -30,-36.8 "/>
<polygon fill="#349C8C" points="107.6,-18.7 78.7,-18.5 29.5,80.3 107.8,-18.7 "/>
<polygon fill="#1B5396" points="-30,-36.8 -30,-36.8 -30.2,-36.6 "/>
<polygon opacity="0.6" fill="#42CC69" enable-background="new    " points="-30,-36.8 -30,-36.8 -30.2,-36.6 "/>
<polygon fill="#349C8C" points="-50,-17.8 -50.2,-17.8 29.5,80.3 -20.4,-17.9 "/>
<g>
	<path fill="#093979" d="M-36.6,119c-0.4,0-0.8-0.2-1-0.6l-4.9-11.5l-1.4,2.7v8.6c0,0.6-0.2,0.8-0.8,0.8h-3.7
		c-0.6,0-0.8-0.2-0.8-0.8V88.8c0-0.6,0.2-0.8,0.8-0.8h3.7c0.6,0,0.8,0.2,0.8,0.8v12l6-12.2c0.2-0.4,0.4-0.6,1-0.6h4.1
		c0.6,0,0.8,0.4,0.6,1l-6.8,13.4l7,15.5c0.2,0.6,0,1-0.6,1L-36.6,119L-36.6,119z"/>
	<path fill="#093979" d="M-12.3,103c0,2.5-1,4.3-2.9,5.1l2.7,10.1c0.2,0.4-0.2,0.8-0.6,0.8h-4c-0.4,0-0.6-0.2-0.6-0.6l-2.5-9.7H-23
		v9.7c0,0.4-0.2,0.6-0.6,0.6h-4c-0.4,0-0.6-0.2-0.6-0.6V88.6c0-0.4,0.2-0.6,0.6-0.6h9.7c3.7,0,5.6,1.9,5.6,5.6V103z M-19.1,103.6
		c1,0,1.6-0.6,1.6-1.6v-7.4c0-1-0.6-1.6-1.6-1.6H-23v10.3h3.9V103.6z"/>
	<path fill="#093979" d="M8.1,88.1c0.6,0,0.8,0.4,0.6,1l-7.2,17.1v12c0,0.6-0.2,0.8-0.8,0.8H-3c-0.6,0-0.8-0.2-0.8-0.8v-12l-7-17.1
		c-0.2-0.6,0-1,0.6-1h3.9c0.4,0,0.8,0.2,1,0.6L-1,99.8l4.3-11.1c0.2-0.4,0.4-0.6,1-0.6H8.1z"/>
	<path fill="#093979" d="M20.6,88.1c3.7,0,5.6,1.9,5.6,5.6v4.1c0,0.4-0.2,0.6-0.6,0.6h-4.1c-0.4,0-0.6-0.2-0.6-0.6v-3.1
		c0-1-0.6-1.6-1.6-1.6h-1.9c-1,0-1.6,0.6-1.6,1.6v5.2l9.1,3.1c0.6,0.2,1,0.8,1,1.4v8.9c0,3.7-1.9,5.6-5.6,5.6H16
		c-3.5,0-5.6-1.9-5.6-5.6v-4.1c0-0.4,0.2-0.6,0.6-0.6h4.1c0.4,0,0.6,0.2,0.6,0.6v2.9c0,1,0.6,1.6,1.6,1.6h1.9c1,0,1.6-0.6,1.6-1.6
		V107l-9.1-2.9c-0.8-0.2-1-0.8-1-1.4v-9.1c0-3.7,1.9-5.6,5.6-5.6L20.6,88.1L20.6,88.1z"/>
	<path fill="#093979" d="M43.3,88.1c0.4,0,0.6,0.2,0.6,0.6v3.9c0,0.4-0.2,0.6-0.6,0.6h-4.5v25.3c0,0.4-0.2,0.6-0.6,0.6h-4.1
		c-0.4,0-0.6-0.2-0.6-0.6V93.1H29c-0.4,0-0.6-0.2-0.6-0.6v-3.9c0-0.4,0.2-0.6,0.6-0.6L43.3,88.1L43.3,88.1z"/>
	<path fill="#093979" d="M52.2,113.9h9.1c0.4,0,0.6,0.2,0.6,0.6v3.9c0,0.4-0.2,0.6-0.6,0.6H47.6c-0.4,0-0.6-0.2-0.6-0.6V88.6
		c0-0.4,0.2-0.6,0.6-0.6h4.1c0.4,0,0.6,0.2,0.6,0.6L52.2,113.9L52.2,113.9z"/>
	<path fill="#093979" d="M69.7,88.1c0.4,0,0.6,0.2,0.6,0.6v29.7c0,0.4-0.2,0.6-0.6,0.6h-4.1c-0.4,0-0.6-0.2-0.6-0.6V88.6
		c0-0.4,0.2-0.6,0.6-0.6L69.7,88.1L69.7,88.1z"/>
	<path fill="#093979" d="M89.7,88.1c0.6,0,0.8,0.4,0.6,1L80.8,114h8.6c0.4,0,0.6,0.2,0.6,0.6v3.9c0,0.4-0.2,0.6-0.6,0.6h-15
		c-0.6,0-0.8-0.4-0.6-1l9.3-24.7h-8c-0.4,0-0.6-0.2-0.6-0.6v-3.9c0-0.4,0.2-0.6,0.6-0.6h14.6V88.1z"/>
	<path fill="#093979" d="M108,92.5c0,0.4-0.2,0.6-0.6,0.6h-9.7v7.8h7.4c0.4,0,0.6,0.2,0.6,0.6v3.9c0,0.4-0.2,0.6-0.6,0.6h-7.4v7.8
		h9.7c0.4,0,0.6,0.2,0.6,0.6v3.9c0,0.4-0.2,0.6-0.6,0.6H93.2c-0.4,0-0.6-0.2-0.6-0.6V88.6c0-0.4,0.2-0.6,0.6-0.6h14.2
		c0.4,0,0.6,0.2,0.6,0.6V92.5z"/>
</g>
</svg>
